<svg xmlns="http://www.w3.org/2000/svg" width="11.891" height="11.889" viewBox="0 0 11.891 11.889">
  <path id="instagram-brands" d="M5.872,34.721A3.048,3.048,0,1,0,8.92,37.769,3.043,3.043,0,0,0,5.872,34.721Zm0,5.03a1.982,1.982,0,1,1,1.982-1.982A1.985,1.985,0,0,1,5.872,39.751ZM9.756,34.6a.711.711,0,1,1-.711-.711A.709.709,0,0,1,9.756,34.6Zm2.019.722a3.518,3.518,0,0,0-.96-2.491,3.542,3.542,0,0,0-2.491-.96c-.982-.056-3.924-.056-4.905,0a3.536,3.536,0,0,0-2.491.958,3.53,3.53,0,0,0-.96,2.491c-.056.982-.056,3.924,0,4.905a3.518,3.518,0,0,0,.96,2.491,3.546,3.546,0,0,0,2.491.96c.982.056,3.924.056,4.905,0a3.518,3.518,0,0,0,2.491-.96,3.542,3.542,0,0,0,.96-2.491c.056-.982.056-3.921,0-4.9Zm-1.268,5.956a2.006,2.006,0,0,1-1.13,1.13,13.1,13.1,0,0,1-3.5.239,13.2,13.2,0,0,1-3.5-.239,2.006,2.006,0,0,1-1.13-1.13A13.1,13.1,0,0,1,1,37.769a13.2,13.2,0,0,1,.239-3.5,2.006,2.006,0,0,1,1.13-1.13,13.1,13.1,0,0,1,3.5-.239,13.2,13.2,0,0,1,3.5.239,2.006,2.006,0,0,1,1.13,1.13,13.1,13.1,0,0,1,.239,3.5A13.1,13.1,0,0,1,10.507,41.274Z" transform="translate(0.075 -31.825)" fill="#fff"/>
</svg>
