<svg id="quote-left-solid" xmlns="http://www.w3.org/2000/svg" width="74.578" height="65.381" viewBox="0 0 74.578 65.381">
  <path id="quote-left-solid-2" data-name="quote-left-solid" d="M67.586,64.69H55.933V55.35a9.34,9.34,0,0,1,9.322-9.34h1.165a3.491,3.491,0,0,0,3.5-3.5V35.5a3.491,3.491,0,0,0-3.5-3.5H65.256A23.322,23.322,0,0,0,41.95,55.35V90.376a7,7,0,0,0,6.992,7.005H67.586a7,7,0,0,0,6.992-7.005V71.7A7,7,0,0,0,67.586,64.69Zm-41.95,0H13.983V55.35a9.34,9.34,0,0,1,9.322-9.34h1.165a3.491,3.491,0,0,0,3.5-3.5V35.5a3.491,3.491,0,0,0-3.5-3.5H23.306A23.322,23.322,0,0,0,0,55.35V90.376a7,7,0,0,0,6.992,7.005H25.636a7,7,0,0,0,6.992-7.005V71.7A7,7,0,0,0,25.636,64.69Z" transform="translate(0 -32)" fill="#ffc400"/>
</svg>
