<svg xmlns="http://www.w3.org/2000/svg" width="10.579" height="9.569" viewBox="0 0 10.579 9.569">
  <path id="twitter-brands" d="M9.492,50.467c.007.1.007.209.007.314,0,3.192-2.182,6.87-6.169,6.87A5.683,5.683,0,0,1,0,56.567a4.032,4.032,0,0,0,.524.03,4.07,4.07,0,0,0,2.692-1.032,2.216,2.216,0,0,1-2.027-1.675,2.463,2.463,0,0,0,.409.037,2.073,2.073,0,0,0,.571-.082A2.365,2.365,0,0,1,.43,51.476v-.03a2.018,2.018,0,0,0,.98.306,2.5,2.5,0,0,1-.967-2.011,2.608,2.608,0,0,1,.3-1.219A5.981,5.981,0,0,0,5.209,51.05a3.024,3.024,0,0,1-.054-.553,2.3,2.3,0,0,1,2.168-2.415,2.067,2.067,0,0,1,1.584.763,4.015,4.015,0,0,0,1.376-.583,2.379,2.379,0,0,1-.953,1.331,4,4,0,0,0,1.249-.374A4.985,4.985,0,0,1,9.492,50.467Z" transform="translate(0 -48.082)" fill="#fff"/>
</svg>
